/* XPM */
static char *_2b0d5ac52214273c2661127f7dbaaf0LMinestPYttMdJCc[] = {
/* columns rows colors chars-per-pixel */
"64 64 175 2 ",
"   c #0F0905",
".  c #1B1309",
"X  c #291F0F",
"o  c #2A1F14",
"O  c #2B2417",
"+  c #322416",
"@  c #352A16",
"#  c #322719",
"$  c #352B1D",
"%  c #3A2D1C",
"&  c #3C311F",
"*  c #362D21",
"=  c #3A2F20",
"-  c #373023",
";  c #3C3223",
":  c #3D3429",
">  c #3F382B",
",  c #42311E",
"<  c #4B3C1D",
"1  c #423624",
"2  c #453A26",
"3  c #4A3B23",
"4  c #413629",
"5  c #453B2B",
"6  c #4A3E2B",
"7  c #493E31",
"8  c #53431F",
"9  c #4D412D",
"0  c #534425",
"q  c #5D4E27",
"w  c #53442D",
"e  c #5B4B2A",
"r  c #5F502F",
"t  c #4D4232",
"y  c #534632",
"u  c #594733",
"i  c #554A35",
"p  c #5B4C35",
"a  c #554B39",
"s  c #5B4E3A",
"d  c #5F5135",
"f  c #5E523C",
"g  c #61512F",
"h  c #604C37",
"j  c #614F3A",
"k  c #645434",
"l  c #685734",
"z  c #675937",
"x  c #6A5A37",
"c  c #63543D",
"v  c #68563D",
"b  c #67583E",
"n  c #6B5B3C",
"m  c #6F603F",
"M  c #71623E",
"N  c #594E40",
"B  c #5C5342",
"V  c #645641",
"C  c #655943",
"Z  c #6B5C44",
"A  c #665C49",
"S  c #6B5E49",
"D  c #715F44",
"F  c #715F4B",
"G  c #6F6045",
"H  c #6D614B",
"J  c #736345",
"K  c #7A6647",
"L  c #7B6B47",
"P  c #73644B",
"I  c #79674B",
"U  c #76684D",
"Y  c #7A6A4D",
"T  c #7E704F",
"R  c #6E6451",
"E  c #746751",
"W  c #786651",
"Q  c #756953",
"!  c #7C6D52",
"~  c #766D59",
"^  c #7C6E5A",
"/  c #7E7155",
"(  c #7E725B",
")  c #816D4D",
"_  c #80704F",
"`  c #816F53",
"'  c #827355",
"]  c #8A7756",
"[  c #877855",
"{  c #8B7A55",
"}  c #84755A",
"|  c #897759",
" . c #86795C",
".. c #8A7B5D",
"X. c #907E5B",
"o. c #837562",
"O. c #867963",
"+. c #8C7E62",
"@. c #8B7D69",
"#. c #917F61",
"$. c #8E805F",
"%. c #92815C",
"&. c #8E8163",
"*. c #8E8165",
"=. c #8E826C",
"-. c #918263",
";. c #918265",
":. c #928464",
">. c #948566",
",. c #968767",
"<. c #998664",
"1. c #978867",
"2. c #9A8A64",
"3. c #908369",
"4. c #938568",
"5. c #938669",
"6. c #93856A",
"7. c #958769",
"8. c #96876A",
"9. c #93866D",
"0. c #98876A",
"q. c #96886B",
"w. c #96896C",
"e. c #968A6F",
"r. c #98896B",
"t. c #998B6D",
"y. c #9A8A6C",
"u. c #9A8B6D",
"i. c #998B6E",
"p. c #9A8C6E",
"a. c #9C8E6F",
"s. c #9F906D",
"d. c #928671",
"f. c #968B74",
"g. c #9B8D70",
"h. c #998D73",
"j. c #9B8D72",
"k. c #9D8E71",
"l. c #9A8E79",
"z. c #9F9071",
"x. c #9E9174",
"c. c #9F9174",
"v. c #9E9175",
"b. c #9D9279",
"n. c #A08E64",
"m. c #A08F6C",
"M. c #A3926D",
"N. c #A19275",
"B. c #A29374",
"V. c #A99772",
"C. c #A79876",
"Z. c #AB9A75",
"A. c #A39478",
"S. c #A39679",
"D. c #A3957A",
"F. c #A59779",
"G. c #A5977B",
"H. c #A6997C",
"J. c #A89A7D",
"K. c #AA9B7C",
"L. c #A99B7E",
"P. c #B09F7A",
"I. c #B2A17E",
"U. c #A19783",
"Y. c #A79A82",
"T. c #AA9D82",
"R. c #AEA184",
"E. c #AFA289",
"W. c #B2A485",
"Q. c #B2A58A",
"!. c #B5A88D",
"~. c #AFA490",
"^. c #B6AA90",
"/. c #BAAD92",
"(. c #BDB198",
/* pixels */
"! U / /  .} / ' ..O. ./ / / / ..&.*.*.&.$.&.&.&./ ( $.$.( /  . . .*... .*...P /  .*.*.9.e.9.f.N.g.q.f.=.*.O.+...+.*.5.=.*.*. ./ ",
"' ' ' ..$./  . . .&.,.-...[ } &.*.&.&.&.&.$.-.5.&.1.q.e.5.5.p.p.&.*.&.*.e.*. .*.q.+. .+.;.,.@.+.;.+. .}  ... . .+...*.*.&...' ' ",
"g.g.e.p.q.+.[ / / '  . .Y G / [  .[ / [ } /  .[ [ ..$.$.$.$.$.} ( Y } } ' ' !  ...+.*.:.5.&.' J I C c c H  .:.&.} '  ...*.5.e.z.",
"v.q.-.;.$.*.*./ T U J G b G / } } } ..../ [ } $.$. ...$.$.&...$.-.q.*.:.e.q.e.e.5.5. ./ } @.+...+.+.' +.Z J } (  .q.v.F.F.b.A.H.",
"..} } ' / / } ' '  .&.$.&... .+.$.&.&.&.....&.O.( &.$.&...&.$. .} / } &.q.:.+.*.e.e.e.v.s.v.v.z.A.v.5.+. .P } *.q.e.F.F.p.-.,.:.",
",.-.,.&.[ ' [ / Y ' [  ./ U Y ..&.e.z.s.z.z.s.z.z.z.v.b.A.e.q.e.-.$.&.&.8.:.......&.:.p.v.v.v.H.L.F.j.:.+.*.y.A.L.L.Y.L.L.v.p.g.",
"} ( / ( Y ! Q b f c i f V C U G P P Q ~ ( ( O. .O.( *.*.&.&.O.&.=.e.*.=.=.O.@.*.O.9.=.d.=.=.5.9.8.f.@.O.O.O.d.=.f.d.d.d.=.=.*.O.",
"( O.( O.O.O.( / (  .O.O.=.=.*.O.}  ./ U P G P ~ Q Q H R R H H H C A A B H H H H H G H R Q Q R Q E ~ H A E A H Q a H R R R R ~ ( ",
"v.P.P.K.V.s.2.2.2.Z.I.!.W.W.I.I.M.n.n.n.n.%.B.I.N.y.5.Z.I.Z.p.Z.R.R.K.R.R.W.I.H.C.F.F.I.R.R.R.v.s.R.W.W.R...p.T.} ' 1.v.p.s.1.A.",
"B.C.C.C.V.M.2.%.2.,.M.M.M.Z.V.V.%.%.%.%.%.%.-.B.p.5.e.p.a.a.-.8.q.g.p.e.,.5.z.5.:.5.*.5.,...| *.' &.&.:.:.J / ;.P / p.v.v.p.g.s.",
"C.C.P.Z.Z.Z.s.2.M.Z.Z.Z.P.I.V.V.n.n.%.%.%.2.p.v.N.N.8.:.:.y.e.-.&.-.$...&.$. .$.*.[ /  .! / [ / ' ' ' ' Y P ! ..J Z / ..&.-.q.v.",
",.s.z.z.V.V.2.2.2.M.Z.M.Z.I.I.Z.n.M.V.2.n.n.M.H.v.g.,.j.8.e.:.$. .[ { / / / T Y P n L Y L / L L J J J Z P [ ;.v.J c U /  . .$.y.",
"8.v.A.C.H.z.1.s.s.B.B.s.V.V.Z.Z.M.s.s.p.1.v.L.v.-.&.' ..*.*.....' Y Y J J L Y L L U Y L / / / ' ' [ ..1.2.f > t : y U H ! ..:.q.",
"5.v.H.Y.R.H.b.v.v.L.L.H.s.y.p.p.-.$.[  . .&.f.+.! P P P Z ! '  ./ K ..&.:.e.L.b.H.I.H.C.s.$.p.W./././.W.R.H . 1   5 6 C } O.*.:.",
"H R R H H B H H G H G B f f f i 2 9 9 9 @ t A f i 9 2 2 6 i i A f f G H H G H H R R Q ~ ~ ~ ~ ~ ~ Q H C A C a B B B f Q R A R Q ",
"q.q.A.L.C.H.R.L.v.v.H.F.s.1.1.%.' ' G p @ f Z.y.p.,.{ / ' %.-.8.1.:.5.1.:.&.&.&.&.&.&.1.:.:.:.[ [  ./ / / ..*.&.8.e.p.*. . .5.h.",
"J ' q.A.q. .c G ..,.8.v.z.y.-. .' :.' J t s p.y.0.#.` J I ..;.2.-.,.,.-.....} { [ ' ' Y [ ....|  . .[ T ` ` } Y Y P D J I U W U ",
"&.q.A.y.' c C J p D Y { ..+.+...+.+.! V 6 c g.e.j.0...] %.a.9.N.v.F.v.y.p.,.*.;.[ ' Y Y '  .| ' ' { .. .#.#.+.| | Y ' ..' } 8.j.",
"$.g.L.q...Y p.&.Z ..8.#.+...+...| ' Z c a & E } 9.9.9.y.N.Y.Q.W.T.Q.L.Q.Q.T.F.Y.A.v.y.j.p.f.l.k.e.s.g.p.N.y.0.8.,.>.8.;.....-...",
"..:.e. .Y  .v. .! j.H.H.L.L.A.A.g.p.+.*.Q , P Y #.@.l.9.j.Y.T.W.W.R.Q.Q.R.R./.!./.Q.Q.T.T.L.^.T.T.Y.R.Y.T.T.T.L.F.L.A.F.F.j.z.y.",
"j.y.@.g.v.b.H.O.w P e.f.0.d.j.8.O.o.^ ` V 5 ! P U W @.l.j.l.j.A.F.H.F.A.j.Y.Q.Q.!./.(.~.Q./.(./.!.^.E.^.E.T.L.R.Y.A.Q.T.H.R.U.v.",
"* * 1 : $ % O O . + 5 6 7 6 y 7 7 4 4 5 : : 4 ; 5 = 6 N B N s a f a a a a i s y 5 9 a 6 7 s a y a B N a 7 7 7 7 : 5 : 1 4 5 9 4 ",
"+ % V E v p w X u F F C F ^ E V j u 1 u V F E C Z F ! E W S h Z Z Z U U I P v c u 3 p y h u p j a s u v V V V 7 w V 6 j h p a 6 ",
"u Z } ' ! ! | , W | } W ! o.Y 6 y v v D F ` ) ` ) F } X.` D v ` D P ` Y P D v c K h u Z v Y ` Y J J P W ` ` F Z P ! Z Z v D V k ",
"Y ` | ! I U X.c | <...` ' ` p , c n D D ` ] D D ) ) { n.0.I ) ] ' ` | ` I Y ' ` ) F D D F D D ` ` I ) U ` I Y ` ` ..I ` ` ! ` ..",
"I ` I X.' I X.Y ] <.#.X...X.` I ) ] ] ` X.X.I ) ] ] X.m.a.y.0.y.y.8.8.y.;.8.8.#.#.+.` ` ..#.+.;.;.....| ' ) ` D ` | I Y ! ..| ! ",
"P J j c k c ] ..` ] #.<...+.Z C ` #.0.X.#...` P I } X.#.g.l.@.l.0.f.y.f.f.j.a.@.0.#.@.o...0.0.0.+.+...' | ] ` Y Y Y ! I ! ! U U ",
"U J ' ;.} U ] ] K I D I Y | J ' | } W ` X.......` ` } @.#.@.h.@.8.d.j.,.8.0.f.>.d.g.f.@...} +.+.' } } ` ..' ` P P Y W D Z V n D ",
"1 4 a i a t 4 6 2 1 5 2 2 ; : 1 = 4 % = 6 t u 7 5 = 4 7 7 7 F E ~ ~ ~ R R E R R A R R R V N N a s B V V N s y 7 7 6 6 1 1 6 2 1 ",
"c C C Z b H J C H J U Z P U J c V F s V W W W o.o.W o.o.@.o.@.@.( @.( ~ o.Q R E ^ ~ F R Q S C ^ ^ A V A S W S E 7 V V 7 6 Z Z Z ",
"Y / Y W G H W U Q P U W ! } } W W ^ P ! ! E } d.d.@.o.W o.@.~.U.U.U.d.@.o.^ ^ o.~ ^ R ^ O.~ Q O.@.} V B C S S F a O.O.O.( ;...} ",
"' ! [ ' / ' / P I ! ! ( ! J ^ P ` ` } O.O.O.@.@.@.@.o.` o.` @.U.@.@.o.o.o.^ Q ^ @.@.U.@.@.@.@.=.d.@.@.O.E } O.} 7 V U c Z / ! ! ",
"f k c C Z J Z S P W ! ! ( } | W ! I F I W ` ' } ` } } } @.@.d.d.@.@.o.o.O.o.o.o.@.( o.@.d.@.O.@.@.o.o.F S W ^ ! f @.f.' ^ W U A ",
"} } / ! P Z P Z C H P U P W ' P ' / Z h v n A J F F ` } ` } | O.( ^ o.o.O.o.^ ^ ^ A ^ ^ o.o.^ ^ E S E V V E ^ V 6 O.9.*.+.q.q.-.",
"Z Y U I W H ' / W ^ W ! ! ! J J P Y U P ..` u u ! W ` ` } } ! ' ~ W ^ W ^ ! F S S W Q S E W ^ Q Z U E F P E  .P 3 @.8.! b U Z P ",
"c f 6 9 9 5 5 9 9 9 6 5 6 w 6 6 6 9 6 6 6 ; o # 5 = = 4 7 # # & * * 4 a s u 7 6 t u A f s a s V s u y u y u f s 6 H R H G b i f ",
"} ' n J J J n Z U L U m z x J Y ! ! I n p 0 n q 3 0 k x 8 8 0 e D Z p ,.#.0.3.| ' ' 1.,.2.{ L [ J q x g M ' X.,.+.` Z k z r n L ",
"[ L ..q.>.,.....$.+...' ' / T T ' ] ' [ | ..+.L ' 8.#...J { ....| ' s y.h.j.;.] K I  .%.%.{ L J q k ' L n M Y ) ) L ' ..' ' [ ..",
":.#.:.2.a.<.,.e.a.p.y.1.s.N.v.z.:.+.[ } #.9.-.@.' ' I U Y Y I J J M p j.j.A.f.../ ..2.-.{ [ ! [ ' J [ ....' ..y.z.z.v.B.B.j.p.y.",
"0.,.X.a.B.y.,.} { T T Y Y Y _ ' ' Y x n x x x n n n M J J k M k x k 6 O.=.l.j.8.y.g.L.L.M.2.y.;.M J [ ] <.<.2.B.B.B.M.B.s.M.m.p.",
"[ ] ' [ [ ' ) J n M x M J n n n n x k n K / } *.9.9.F.A.9.+.O.} ' ' 5 Z ! @.f.j.8.b.T.E.K.B.a.,.[ J [ $.%.-.1.y.0.0.,.8.-.%.-...",
"] ' L [ %.-.1.,...' %...-.....$.| X.&.&.p.s.v.v.j.f.N.A.j.j.| J ' ..a Y P ! ` f.A.F.Y.T.I.L.K.V.2.{ { $.{ ..<.%.X.X.<.y.X...{ { ",
"c c c C S n Z C c c Z A C c c b C J G V i 0 < 3 0 0 e p e 0 3 < 0 v * # # * ; a A B V V A H H f 9 9 ; & 2 9 i f c c V A f f V c ",
"G P G A V b c f V Z P U H Z Z c c f f c c Z A G S J P F U S J J J H Q E E R Q R H S E S E H H U Y Q / ! Q P U Q Q J H H G Z c f ",
"G Z J P U I G G Z J Q W P P I P P P Z Z J J Z P F W F F S P ! U ( ' O.} ' ^ ' } o.} W / } ' ! ! ' '  .*.-.*.&...' [  .' } ! I G ",
"Z b C b V c b C s c Z S S F F C Z C V V S S P Z V Z F F P P ! W ( } } ! W ^ / ! ! Q U U U Q ! ! Q U P E ! ! ! U U U P H P G Z G ",
"Z Z G Z G Z n V c c Z S I U F Z C Z C V j V S Z F C C Z Z Z U } O.+.^ } +.@.;.;.*.*.&. .....+.O.O.....} / Y T Y Y U P G J J G Z ",
"Y U Y J U I U I P I Q J U P P F S Z Z Z C V V s C S s s s j A U ^ !  .+.+.;.;.;.&...[ &.*.&.....&.| ..+.&.&.&.&.&. .' } } / / Y ",
"-.$.$.:.&.-.$.-.-.$. . .$.$.&.$...} [ ' / ! P J H Y A p i c Y } &.5.,.$.&.&.&.$.&.&.' ..-.$...$. . .....&.&.,.&.1.e.e.p.y.5.:.*.",
"i i i f B C C C C C C C f f A G H H S C H C V c c c c d w a Q H ~ / ~ ~ R Q / Q H P H Z G C C f a k f d f b c G H B A A f f f i ",
"l.h.b.g.b.b.h.e.e.e.=. .( }  .*.e.b.b.v.A.A.f.9.8.*.*.&.g.f.l.h.5.5.$./  .*.} Y Y ! ! U U U ! I f f a f P I U I a B H R ( 9.f.g.",
"E.R.W.Q.W.Q.!.!.!.R.L.v.s.q.e.g.N.T.R.H.T.L.v.q.:... . .F.L.T.A.z.,.%.M J / / ' [ [ [ ....! [ *.! Y Y ......[ J J z.v.R.!.Q.R.R.",
"..*... .{ } '  ./ U P Y b b C J ' | [ ! / U U U U S Z S ! } +.! / U J z r c J I Y T I L Y T _ Y Y L L I J g n n A ( ^ E &.[ ( $.",
"/ Y Y ' ' ! / / / ^ P J G A C C C J n P J c c J Z V C C S ! E P / R C H A d m m P / G Z I ` K K Y J I J n J Y -.c V S E R / ! T ",
"b n G Z Z G G P P Z C c c v n c c c c Z C p c Z S A V s C P Z D P b d f f f J M J T ' U I U ! Y U Y ! Z c G ! [ i 6 a P P G G C ",
"U / '  .' Y ' [ / Y D J Z c c c c J Y ' ' [ U G J P Z v V D I ` ' / T G G J L T T _ ' J U ' } ..' ' ' ` Y I I _ p s J ^ ! H / U ",
"d z d p c b c c v y w y y 9 9 y t y y i p s a 9 t i 9 2 ; 6 i i p p d i e d d p f Z Z n n C G G G G Z C J G J n 2 6 w w p b f p ",
"Y Q Q L U P G U U ! ! Q P H Y E W U Q ! Q Q ~ / ~ P H G U 9 w A / P Q / ( / ( / ( } } (  ...( } O.+.} Q ( } O.( ( ' ( / } } / ! ",
"*.5.,.&.&.&.+.&.+.&...' ' ;...+.*.;.y.8.e.v.g.f.z.e.*.*.8.U t ..v.q.e.e.y.q.z.H.H.H.H.D.Y.A.v.A.H.H.A.A.v.A.e.y.z.g.A.p.j.p.e.*.",
"G P P C b / ..H } 8.&.Z / *./ y.U +.;.! .... .^ O.+.O. .+.S U d.b.5.z.z.q.e.e.v.F.b.v.k.A.g.*...g.F.v.a.e.:.' ! U U ! ^ *. .P U ",
"b.A.p.z.e.e.q.+.e.v.&.} ( } [ ../ / } ! I U W W U P P H E C P +.g.&.5.5.*.-.8.5.j.v.b.C.F.H.v.N.H.Y.A.H.A.v.A.z.j.y.j.3.y.8.*.A.",
"*.5.5.&.*.z.q.5.:.e.5.*...} ! Q / ! C c c n A A S H S p C A W } 5.5.*.=.e.e.e.*.+.f.g.e.e.y.p.h.g.j.z.g.e.g.e.f.p.v.b.g.F.v.j.8.",
"*.*.=.8.,.-.*.5.:.*...} / ! / H J Y P ` U U ! ! ! ` / U H C P *.5.5.e.9.,.*.e.q.g.A.g.z.j.j.j.j.v.j.v.g.8.5.:.5.8.q.e.,.-.5.5.*.",
"/ / / Y Z A Y / / ! I H G J J c c A Y C f f s V s B f f d & H / Q /  ... .O...&.8.e.9.8.@.9.f.9.+.5.9.9.=.8.*.O.*.*.+. . .P Q ! "
};
