/* XPM */
static char *_580935585103[] = {
/* columns rows colors chars-per-pixel */
"64 64 122 2 ",
"   c #8A755E",
".  c #8E7963",
"X  c #957F67",
"o  c #927F6A",
"O  c #94836E",
"+  c #9A856E",
"@  c #9D886F",
"#  c #9B8670",
"$  c #9C8972",
"%  c #9F8D79",
"&  c #A1876D",
"*  c #A48D74",
"=  c #A88F75",
"-  c #A28F7A",
";  c #A59176",
":  c #A99177",
">  c #A4927C",
",  c #AB957C",
"<  c #AE987E",
"1  c #B29B7D",
"2  c #A69582",
"3  c #A99782",
"4  c #A79885",
"5  c #AC9A84",
"6  c #AD9E8A",
"7  c #B39D82",
"8  c #B19E8A",
"9  c #B6A085",
"0  c #BAA487",
"q  c #B5A28C",
"w  c #BAA48C",
"e  c #BDA88B",
"r  c #AFA190",
"t  c #B4A592",
"y  c #B9A791",
"u  c #B7A892",
"i  c #BDAA94",
"p  c #B7A999",
"a  c #BDAD9B",
"s  c #BEB19E",
"d  c #BAAFA0",
"f  c #BDB2A2",
"g  c #C5AA87",
"h  c #C0A789",
"j  c #C5AC8C",
"k  c #C9AE8D",
"l  c #CBB18E",
"z  c #C3AD92",
"x  c #C8AF91",
"c  c #C2AF99",
"v  c #C6B195",
"b  c #CDB494",
"n  c #C5B39B",
"m  c #CAB69B",
"M  c #CDB99D",
"N  c #D0B696",
"B  c #D1B897",
"V  c #D0B799",
"C  c #D3BB9C",
"Z  c #D8BE9E",
"A  c #C4B5A3",
"S  c #C9B6A2",
"D  c #C6B8A6",
"F  c #CDBBA3",
"G  c #C4B7A9",
"H  c #C6B9AA",
"J  c #CCBDAB",
"K  c #D3BEA3",
"L  c #D8BFA1",
"P  c #D1BFA9",
"I  c #CABFB1",
"U  c #D6C09F",
"Y  c #CEC1AD",
"T  c #D5C1A5",
"R  c #D9C2A5",
"E  c #D4C3AB",
"W  c #D9C5AC",
"Q  c #DCC9AE",
"!  c #CDC1B2",
"~  c #CEC6BB",
"^  c #D4C5B2",
"/  c #D9C7B1",
"(  c #D6C8B5",
")  c #DBCAB4",
"_  c #D4C7B8",
"`  c #D5CABB",
"'  c #DCCEBB",
"]  c #DED0BE",
"[  c #E0CCAF",
"{  c #E0CDB6",
"}  c #E0CEB9",
"|  c #E1D0B7",
" . c #E1D1BC",
".. c #D6CDC1",
"X. c #D8CEC2",
"o. c #DDD2C2",
"O. c #DCD5CA",
"+. c #DFDACE",
"@. c #E1D4C3",
"#. c #E5D8C7",
"$. c #E2D7C9",
"%. c #E4DACB",
"&. c #E9DDCD",
"*. c #E4DDD1",
"=. c #E8DFD2",
"-. c #ECE0CF",
";. c #E6E0D5",
":. c #EBE2D5",
">. c #ECE5DA",
",. c #EFE8DE",
"<. c #E4E2DC",
"1. c #F0E7DA",
"2. c #F0E9DF",
"3. c #EFEAE2",
"4. c #EEEDE8",
"5. c #F2ECE3",
"6. c #F3EFE8",
"7. c #F7F1E4",
"8. c #F6F2EB",
"9. c #F9F4ED",
"0. c #F9F6F1",
"q. c #FDF9F2",
/* pixels */
"6.>.;.;.>.>.;.;.;.;.>.>.:.,.>.2.,.>.=.>.8.3.#.@.@.#.#.&.#.#.#.5.6.@.' P P P P / / P P P P } I _ ' o.$.$.3.=.^ ' ' o.o.@.} } @.5.",
"! @.@.o.] ] ' ' ' ' ' ' ' ' @.@.' o.@.@.3...R L [ R [ [ / { / :.*.P I J P P P P P L P P P P P / _ _ X.P =.G K K P K K F W P R :.",
"A o.' ) ^ E / ( W ( ) / / / ) / ) ' ) @.5.^ / / { [ [ [ { L W :.O._ { } / P W P / W / / / { P P / { { _ =.A K V K P P W P E } >.",
"G X.) / W W / ) W E ( ' ' ) ' ] } ' ' @.5.^ W R W { [ R [ [ { -.@.P P P P L L [ P L / / P } P [ L P / } @.A K S P ) W ( W P / :.",
"J ' ) ) ( / Q / ) / ' ' ) ' | ' ) ) ) } 5._ / L W [ { { { / / :.@.W / P L P W P R W W W W Q W W / / [ } $.i n b v K ) / ) E E >.",
"! ] ) ' / E E ( ' W Q / ) Q ) ) / ) )  .5._ [ L [ P L W W [ [ =.o.W / L P L L [ W W W W W Q P W / L / o.@.A L L E ) ) ) / P E :.",
"J o.) / / / / E / / E ' Q W ) ) ) / / ) 5.P L [ L W [ / W L / &.@.P W P L P P L W P W W W W W P P R W } %.F P [ W ' | ' W P E :.",
"J ] ( ) ) Q ) ) ) ) W Q ' ) Q ' / { / } 5.^ W L W [ L { W W W -.@./ / P L L [ P P W W W W / W P P L W } &.S K P ) W W E / R W :.",
"D X.} } } ) ) ) / ) E / ' ) } / / / / { 5._ K L { P [ P { P [ =.$._ ) W L L P W L L / / / / W W / P P _ =.A P R W W W W E W W >.",
"c F J c c n c c n z i q 0 i i c c x S P 6.P x j z j j x x z z &.@.D F F P S P P P P S S S J F F P F S A $.y 0 7 0 j z z z v z =.",
"$.I D G G d a H J J I J H G H H I I I ' q.3._ I J H G H J J I 6.>.A p A G A S J J J J J I I G G H H A J 5.*.` ! A A A A A H _ 9.",
"} ' X.>.>.W W E E F E W W P %.3.$.%.&.#.&.*.*.$.=.%.$.*.&.&.&.&.*.*.=.=.2.P P P / { P { P P _ =._ } ( ' _ ^ ^ ) ' ' ' ' ' ' ' ' ",
"' ' @.2.%.P P Q E R R E R R @.*.#.$.@.o.@.#.#.#.#.#.o.@.o.$.#.$.$.@.$.=.X.J K P P { / / R K / G P P ^ ' ' ' X.o.$.o.@.@.o.@.) ) ",
"o.} ' =.%.E L T R R P P P P %.O.$.' _ } P { _ } o.} { } { _ X.o.X._ @.=._ m L / [ / W P K C P G o.' ' } ' ' ) ` X.@.' @.' ' ' X.",
") ' / =.*.P W ) E W R R P L %.o.@.{ P { @.{ L _ { } P / L / _ P } } @.=.I v L P P W W P W P P S ' } X.o.@. .X.@.'  .X.' ' / W ( ",
"( ' ' =.$.W R P R R R R L P %.O.@.{ } / P { { } / } P { } } @.} } o.@.=.I L P L P W L L P L P J ' o.@.@.' @.@.( @.%.@.@.} } W P ",
"( o.} =.$.W P L P L L L R P @.O.@.} / ) / / / W / { P / / [ _ { o.#.%.:.I L L L L P L R R L P G o.@.@.@.o.@.} P X.$.=.&.@.} o.' ",
"@.o.X.1.X.W W L M L K P R P %.X.$.@.) ) { { { / L [ / { { P / ' } @.#.:.I L P / W W W R P P E H o.@.@.$.o.} } F } o.@.@.o.} } o.",
"' o.' >.o.P P R R E R P R P #.X.@.#.@.} ' ' { { { / / / [ { } } o.@.@.=.X.L L / ) W W P L K ^ A } o.@.o.o.o.' F ( ' ' ' X.} ' X.",
") ( } 1.' W { / W W R W R E &.' o.%.#.#. .} } } } o.} { } _ ' o.@.o.o.=.H m z 8 0 8 w w i c P a ' } @.@.} } o.P ( / P ' / ( ' ) ",
"* 3 8 =.X.8 0 w 7 > + * * & o.X.+ $ - - - * - - > 5 5 7 8 5 2 2 3 3 3 _ I < 8 z m K S S c w P A 2 5 5 : : , , & = * * * * * # & ",
"I ^ ' 3.5.>.1.2.3.9.%.:.=.=.1.:.@.} ' } ' ) / ' } o.@.#.#.=.9.=.#.#.o.#.&.P K K P @._ P ) _ $.@./ P ^ P P ^ P F F F F P P P ..I ",
"@.@.@.o.o.' ' @.@.0.P L W / [ P L m b N k k N b V V V L L P 0.m / L Z V V C L V V *./ @.o.) ( / _ { _ P / / / W P L P L P o.6._ ",
"o.{ ) / / W W ) @.0.K P W L C V V b C V Z C l N V V V V V [ 8.b V V V Z V V Z Z K _ P @.' ^ J ^ P } } ' P P K P P P P L K } 3.F ",
"{ W W L P R R / o.9.K L L K V x Z V V C V l V Z C Z C C L L 8.V Z L N V Z V Z V C ^ P ' @.' ' / E J P / R E P K P L L C P @.5.J ",
"W P / L L L L W @.9.P [ [ L K L C C V N Z L L L K V L L C L 8.K V N L L Z V V N C ! P ' @.' ' ' ) / W / / L P m P / P C W ' 3.F ",
"P P / W L L L W } 6.b C K W K V V C R [ L L V L Z Z P N V K 6.V N V Z V V Z V V C ^ E '  .' ' E ) / E E W / P K W P R P P ) 3.S ",
"{ / ) ) W W R W @.6.m K b j L V Z N N L R L L Z V N N N V L 6.V V V V Z V x N N b G J E @.' ' / ( E F E F F / P V P P L L / 5.P ",
"[ ) ) / ) / { / o.8.V L K V L V N C V Z L L L V N N b l N L 8.S Z Z V x V x V V b F / ( o.] ' ^ ) ' F P ( K E W M K L m M ) 5.E ",
") W W / / ) W { ' 7.V P P L L L R L L L L L L L Z Z V C V L 8.x x V Z V V Z C N B D ( ] @.@.@.o.' o. .' } ) ' } / P P P P  .5.P ",
"' ) / P P P P L P 9.S W R W [ W W L L W [ R [ L L L W K K S 8.x Z V V V b x x x e p n F m D J F J J D E F J D P K S F F K ' 5.D ",
"y 8 8 5 3 8 8 8 P q.^ c c y 8 7 7 , 3 : = : = = X . X * * c 5.A 8 t p t 5 8 t p G ! O + @ $ O O + # + # # + & & X X .   X X.9.c ",
"b T T ;.>.Q Q W ) / { ' | { { { { ) ) Q Q T R Q &.O.P J ^ ^ P / P P P P I _ P P F F F E / ' @.*.R T T E R T R E W Q Q W U b T T ",
"W R T -.! T T m Z K L Z T R T T W R W W T R R R @.J m z x b v m C P C S L C C P K P P P P ( @.S K K N b l N C C U R Q W e B e b ",
"W R R -.Y U U b b b N b B C U M C C C T T T W R @.F K m V C b b S V S Z V V V V M K K T P W o.q M M b b N B B C C C R W W v W W ",
"Q T U -.Y M B l C C T b b N U B N C Z U R T W W } M V C C b N C V V C V b V V S C C L T E ' @.w b b v l l N l B B l R R R U U W ",
"U U U -.A U l B b C B B l B M B N C U T T R R R } M V m C R R Z C V m V V V V x M C b T T )  .i C C b l l j l l l B R | R U U M ",
"R Q T -.Y l l b b B B B B B B B C C U U U R R Q { S R W R U Z Z C L K C x b x N l l B R / | #.a C T C b l g g v l U C M U [ R W ",
") T U -.Y l B B B B l l B C C C C U U K R R W W | m C R R R T U V C K L C l k k b b T M T ( @.n C Z M C b B l j k B B B B B C [ ",
"U U T -.E k k l B B U C B C C C Z U T T R W Q W ' S K Z R T T U V K C C Z V V l l l C M T E ' a C C C T C C B B B C C b B C U U ",
"U U U :.Y l k k l B U W U B C C C U U T T R T R ] U Y U T R T W P V V F S K V V V b L K P E ' a U U U U U U U U T U T U U M U U ",
"> < 1 ;.Y 0 1 1 0 9 0 9 0 0 1 1 1 1 9 < < 9 9 0 ( t r u a n n n S c S p z w 8 h S S m A z a ! q < 1 < 1 > 1 9 1 1 1 1 1 < , ; % ",
"s Y Y 7.;.Y Y ! ] ! n s s A D G G A A s s i i n -.` s s s Y f ! I I I J I S H S H I A a f H =.o.I I ! ! ~ I ~ ( ` ' ` _ ! Y H f ",
"] ] ) ) ' ' | ' Q ) ' ' ) ( W / Q ] #.#.3.U W W Q Q ) W Q Q ) 0.o.' ' X.@.X.} X.) ' ' ) ' ) ) X.] | ] -.3.Y U E E W / ) ) Q ] 8.",
"E T T T U T T T M M M M U m m U F T ^ ] +.U ) ) ) ' [ [ Q Q E ;.I P ' P P ' P o._ ( ( ( ( / P ^ Y E [ +...Q Q | Q [ ' ] ) W ] +.",
"T C B b B U C M b b M M m m m U M U T ' +.U Q Q [ W Q Q ) E E X._ P P / } I P P ^ ( P ^ P ^ ^ / ) ) W ) ` Q ( | [ ] ] ] ] Q ] o.",
"U C B B M U M M M B M F m m M M U M T _ +.U Q R Y W W W T W T ` _ I / I P P I ' ^ ^ ^ P P E P W E Q W ( ( ( | [ W ) [ ) ] [ #.] ",
"C C M B M B M M M M M T m m M b M Y T ] +.m R T U U [ W Y U D ` I / P _ _ X.} I _ _ ^ P ^ ^ E R Q E W W ( E ' ' W ) | ) ] ] ] +.",
"M M M b v B v m m U m U i l v v M M Y ( $.v U T M M / ) ) E T ..Y ^ Y ^ Y Y Y ! ^ ( Y Y E Y E E E E W W ( E [ ( E ( | ( | |  .;.",
"T b b b U v m U m n m n v v b v m M T ! +.v m Y M U T T T M F ` Y ^ Y Y ( Y Y Y Y Y Y Y Y ( R E E ( T E ( Y ( | ( | | ( ( ( ] ;.",
"T m M m m v v n m m U n v s v v n m F E %.a M U m M Y M m m M ` Y ! ^ Y Y Y Y Y Y Y Y Y Y Q Y Y Y Y U Y ( E Q ( E ( ( ( ( Q | +.",
"Y T M m m s U U n m s U v s U U F F ^ ` +.v v U M m M U F F M ~ A n s A A M U s A U D F Y U Y Y T Y U Y Y ( Y ( W Q ( Q Q Y ( O.",
", 6 q u q q 6 q 0 r u u u u q e q u u s +.1 < ; , ; ; ; ; ; 9 +.t q p s s s U s i i s s v v A U n s u Y Y > 1 < > ; % % ; > Y +.",
"D D Y ^ ] *.O.( ! T Y Y E ^ Y Y T Y Y E Y D U n A n H ..! ` +.+.' ~ ^ ( ! ! O.Y Y Y E T Y ( Y ( ( Q ) #.+.' ' ` ( ( +.( ( ( +.+.",
"E ) E ( ( >.! ^ T M M m m m U U Y M D M M m m Y Y Y ( +.Y M T M M M M T A U <.U T E T ^ Q [ ( Q ) Q ( ( W W E [ | ( ,.Y Q E Q W ",
"E E T Y ! ;.s T m n n U n n s s m m M n m m n U n i Y ] U F T Y E F E T U Y O.U Y E E Q ( ( ( ( ( ) [ ) W E W R E [ ;.s | Q ( Q ",
"U T T Y ( ;.u n M m n U s l v m m m v m U n n m m n ~ X.D T T T T E T T D Y ~ T Y U ( ( E ( ( Y ( ( ( Y Q U W E E U +.s Y U U U ",
"n E Y M ^ ;.u Y n M n m v i v v n m U s U n m n v n T ` m T F T T T U M T m ~ T E E U Y U Y Y n E ( [ Q Y E E Q U E +.v U U U Y ",
"U D Y Y ( <.u U M m m m v v v v s v n m s U s n M m ` X.n T E T T F T Y m n ~ F Y Y U Y U Y U F e F Y Q ( E E W Q U +.n U U m U ",
"m M U U Y >.s E D m m n n m n m U n n m v n m U Y E ` ` n T T E m T Y T M T ~ M U m n n D F U D U Y Y U Y E E Y Y Y o.s Y Y F U ",
"M M M Y ^ <.s T m n m m U U s U m m i v i v n n F E o...M F M F F T F T T F ~ v v n m D M F Y Y Y Y [ ( E Q U Y R Y ..v Y R U U ",
"U M n Y ^ <.t Y U s U m n U Y s m m m v m n m m n F ` X.v m M M F m T T n M ! e F U F U Y Y U Y Y Y Y E Y Q ( | Q E +.s Y E U Y ",
"T Y T ( ` ,.r Y Y U Y Y n Y n U m Y n m m Y m F n A ^ O.z m v M T M M F i F f m n v M F M m Y F U Y U Y U Y Y Q U Y +.i ( ` E E ",
"r t t 6 f 4.! % > > 6 6 6 r 4 4 5 4 4 4 > , 2 > 2 r ..<.2 % % % > 6 % O > d +.2 ; % ; > > % % > > > > $ O O @ ; 6 Y 4.s 6 4 > < "
};
