/* XPM */
static char *_580935690605[] = {
/* columns rows colors chars-per-pixel */
"64 64 120 2 ",
"   c gray19",
".  c #323232",
"X  c #393939",
"o  c #3A3A3A",
"O  c gray23",
"+  c gray24",
"@  c #3E3E3E",
"#  c gray25",
"$  c #414141",
"%  c gray26",
"&  c #434343",
"*  c #444444",
"=  c gray27",
"-  c #464646",
";  c gray28",
":  c #484848",
">  c #494949",
",  c gray29",
"<  c #4B4B4B",
"1  c #4C4C4C",
"2  c gray30",
"3  c #4E4E4E",
"4  c gray31",
"5  c #505050",
"6  c #515151",
"7  c gray32",
"8  c #535353",
"9  c gray33",
"0  c #555555",
"q  c #565656",
"w  c gray34",
"e  c #585858",
"r  c gray35",
"t  c #5A5A5A",
"y  c #5B5B5B",
"u  c gray36",
"i  c #5D5D5D",
"p  c gray37",
"a  c #5F5F5F",
"s  c #606060",
"d  c gray38",
"f  c #626262",
"g  c gray39",
"h  c #646464",
"j  c #656565",
"k  c gray40",
"l  c #676767",
"z  c #686868",
"x  c DimGray",
"c  c #6A6A6A",
"v  c gray42",
"b  c #6C6C6C",
"n  c #6D6D6D",
"m  c gray43",
"M  c #6F6F6F",
"N  c gray44",
"B  c #717171",
"V  c #727272",
"C  c gray45",
"Z  c #747474",
"A  c gray46",
"S  c #767676",
"D  c #777777",
"F  c gray47",
"G  c #797979",
"H  c gray48",
"J  c #7B7B7B",
"K  c #7C7C7C",
"L  c gray49",
"P  c #7E7E7E",
"I  c gray50",
"U  c #808080",
"Y  c #818181",
"T  c gray51",
"R  c #838383",
"E  c #848484",
"W  c gray52",
"Q  c #868686",
"!  c gray53",
"~  c #888888",
"^  c #898989",
"/  c gray54",
"(  c #8B8B8B",
")  c gray55",
"_  c #8D8D8D",
"`  c #8E8E8E",
"'  c gray56",
"]  c #909090",
"[  c gray57",
"{  c #929292",
"}  c #939393",
"|  c gray58",
" . c #959595",
".. c gray59",
"X. c #979797",
"o. c #989898",
"O. c gray60",
"+. c #9A9A9A",
"@. c #9B9B9B",
"#. c gray61",
"$. c #9D9D9D",
"%. c gray62",
"&. c #9F9F9F",
"*. c #A0A0A0",
"=. c gray63",
"-. c #A2A2A2",
";. c gray64",
":. c #A4A4A4",
">. c #A5A5A5",
",. c gray65",
"<. c #A7A7A7",
"1. c gray66",
"2. c #A9A9A9",
"3. c #AAAAAA",
"4. c gray67",
"5. c #ACACAC",
"6. c #B1B1B1",
"7. c #B2B2B2",
"8. c gray71",
"9. c #B7B7B7",
/* pixels */
"_ +.W ] Q ~ ' ` Q W R U ( ( ` D e N O.{ X...O.5.4.4.,.&.+.%.O. .E U U S L @.>.#.+.*.=.;.$.#.;.X.U { E k H $.&.6.*.-.>.O. .=.1.8.",
") ( ! R ) O.] }  .^ R E ~ E ^ H g D ;.@.#.%.:.-.=.>.,.$.@.&.] ( J R [ +.*.#.%.#.+.@.$.&.=.:.Q W I ) H a A ! / ( ) [ ~ K P / ` ` ",
"R ^ } ' ] #.@.X. .[ / U R E I Y B D O.#.#.&.7.,.,.$.%.X.X./ D A T o.%.=.&.o.#.$.$.o.o.*.+.O.W } P | P l Z S d 3 1 1 : - = - = = ",
") [ +.;.| [ / ] ~ R ) W _ ` } ! N V [ ` | ;. .[ ;.O.' Q L m S ` #.;.*.#.+.%. .' | @.%.} ) @.) X.) +.~ v S E Y L H H K Z F K I L ",
" .' ^ } Q W W W [ / ( ' ) O.Q P v V } O. .X./ ' [ X.E J J ) %.*.=.$.+.+.' ` ' ..X.X.[ ! } %.[ O.*.&.Q v I o.' ] { X.{ X.( ! ' _ ",
"X.` ) _ ' ] ` [ { Q Q W ( ` D R b B ( &.#...+.) | U I D T W I R R ! ' [ ` ' X.#./ T T ( ' o. .+.&.' F f W #.$...O.@.o.@.' [ ) R ",
"] ) _ ' ' [ _ } ' ( W Y Y _ ! ( v b  .$.&.| +...W L A D W Q T Y E ( |  .X.#.} T T ) | o.O.o.)  ._ ( V a ~ ,.Y U E _ ^ )  .%.{ _ ",
" .| ~ E _ ' ` / ) ~ Y L _ P S Y l G *.W H ( o.~ ' I U ` [ W P W ( [ { } X.! W ( ' ....| ../ Q _ ^ F c i Q ) Q ..+.' ! ~ / ) ) X.",
"| ' Y J Q ! ~ E W ` ! _ _ ^ / F p L [ ..*.:.L T ! ~ | *.*.o...%.*.+.$.o.O.+.+.O.$.-.;.%..._ W K B F B r W %.@.[ ` | ] ] ] ' ) } ",
"S n b C A M N v v l g l b z d e b m c Y W T E X.( ^ / P J P J S N h Z F l z z t Z E ~ | } X..._ Q P 7 y ( :.O.[ | ] ` ' _ ^ ` | ",
"M d 8 t u r j z b M v h u u s l c f u h b M k a e y r t s d z N D J S Z B B n C C A m h z B z a r 1 r M )  .} '  .} [ } { ` X...",
"X.} ^ ( ] ] ] { ' ) _ ( / ! / E E ! ~ [ ! Y F R ' `  .O.} X.[ X.| [ X. .[ / ' ) ^ ]  .[ / Q L T Q ( W V / ' ) ] ..) Q $.{ {  .{ ",
"_ ] ] } ` R / } { [ { ] o.%.| _ _ _ { %.P x N ^ D x S L / ..| [ @.O...&.#.! L I R Y Y _ ] W ! R E Y ' 6 L | R L ` ! ` | ) } } ..",
"..O. .} ) ~ X.~ ) [ [ | ;.+.`  .$.} E ! F s g M a x H R _  .| ] *.O.W  .[ J H W ~ U P T ! ' W H F I J , F ^ ^ ( ` { ..'  .| } ] ",
"] [ { o.} o.} ' ( ` } X._ ~ W '  ._ Y A A p u M k A ! X.#.*.%.o.X.` ^ #.' ^ ..[ | ' ~ ' ` K T Y T ) N : K ' X./ [ [ _ Y ( ] { ] ",
"J H I U R ` ^ [ ..{ ] E I / ) ` _ } } J C r y m c !  .[ o.%.O._ { ) ! | _ o. .+.O.@.;.&.] L W Y ^ | N 9 ^  .( / W ~ .. ...o.O. .",
"Z U T L K I ( R Y E ) ~ { { [ ] ( T J H N u y Y I P ..%.#.o.' W E G S G Y Y R W Q ~ |  .[ [ ] ( G R m 9 ] { T T / [ E ( L E E ~ ",
"R F n D G H I C B J L J I ^ W F E ^ R Q K y q N K D =.=.} ..R S v L Y Y V V M m K _ K F J V S R m J d u ' _ U ]  .P A S c H E Z ",
"x k i 3 0 g 0 e p a y j p l l v b c Z S Z i t n n E [ #.$.~ F I ~  . .R Q [ ] ^ [ / D V x b N F n b i p W | O.{ T L T K I Y P Q ",
"x S L C B M Z Z D G A D F F P I G F J L G x q k l v Z Z n l y b B v j a h f b j e w 8 p s h h d h z a m L l a p r g y r q p h k ",
"` / ` ] _  .{ ' ` ..o. .' { ..} +.#. .^ Z j y d l b b z b l x c z s s s p y e e d x n A F I K L U U ~ ^ U G Z v x j z v F Y L K ",
"~ Q ) ( ~ _ ^ / ` ..X.` ( | { ..+.O.o./ l d z E [ ' / } | { } T A  .[ +.} } O...~ [ ]  .o.[ { o.| +.=.} | { +.@.#.#...[ _ }  .{ ",
"R ~ ` ( ` ~ R / } | | ....&.#. .#.o.o.H f u F -.X./ +.;.;.| ..M r &.>.*.o.1.1.| ] O.| =.%.O.#.%.o.$.;.*.3.4.*.$.} X.O.[ | [ ( ..",
"P E ` ' ] ^ ~ ] ^ / { ) O.&.{ | O.] ^ J z w I o.) ] %.+...` ` u 7 ] *.%.$.%.' ' +.+.X.%.&.:.;.&.=.,.<.>.-.$.{ | O.#.+...%.+.@.,.",
"U ^ ' ^ ! ` ( ` ~ { ] / X. .( { ' { ] ! l 0 ` | W } .. .&.{ ` i a | #.=...%...-.%.*.>.:.%.&.%.%.;.>.4.=. .+.' [ X.&.&.o.$.@.%.} ",
"R _ ) ~ ^ ! / ) / [ ` / | _ _ _ X.[ ~ E h e ] ( _ ` W ] ) K / i h  .} / P E { X.#.%.&.o.+.$...] '  .#.} :.*...O.' | ( ` } } o.$.",
"T ) / _ ) ^ ) ~ [ @.+.' { { _ ( ` E ! Q y s ` ( { K W ) W E E w m +._ Y H ! ] %.=.+.X... .' } ( ( ] I ( X.*.O.` -...( ' {  .X.' ",
"T ( _ ' / ! Q ~ _ } ) W Y T T / H Q ^ ` h z  .{ R G H W _ F M 8 V O.X.` / $.O.$.<.&.+.[ L T Y P ] Q R ^ [ %./ ~ D k N B J ` ) / ",
"Z J ( ) P L / E W ! W T U Q W ! ~ ' } Q w c ^  .( C v V x f k e s ^ ` L P K D ( I a z d a l C V B D L H K c v h d V S U X.} ) | ",
"f j v c u w u y u h h i c b j M F j d 0 f N s d y q e e i a d v c s e 8 0 6 w 9 5 8 7 6 6 5 q q 6 , - 8 2 6 9 w i f f p a r y p ",
"r z N l y r r u s s p i j m B C G T Y ^ ` _ T G v v A H I U E E U H H I H L P K P K F D C m D Z V m C N C Z Z Z C J A V M N n v ",
"t D ~ T _ ` Q U I Y T T ! T ^ | | ]  .O.) ' ] _ _ / _ ' ( ( ! ( W E [ $.( T T ` _ ( E L C M S Y E U ~ /  .} } ] } +.o.} ] [ ` ) ",
"i I ..]  .+. .| X.| | ] ( l ` } ^ ` _ [ ` ' ` ` | ^ ] ( _ / ^ E W ~ _ E R ( ^ _ ( { Q ` c p P +._ ) O.+.o.{ | =.$.| #.o.+. .{ X.",
"l Q } ] ' [  .} ' { _ ' / l X.~ I L Y ( | ] O.| E ~ } ) _ ` } ] Q | ` J [ ] ( ) U T ) | j q R _ Y { @.%.%...+.O. .@.o.+.o.o.+.@.",
"z ! ..^ ' X.` ( ` } ) { E M { I R Q ) / ] ` ~ ' ~ T ..[ Y Q ) ( ( ^ ( [ ` G E I T ` ..( z i T / ] ..| o.} _ o.o. . .o.X...&.+.| ",
"L ` { _  .` ^ ( ` ' } { R N ' E / _ | _ _ ! ` @.^ L ' ^ L E Q / E N ~ ] S I ] W {  .] E v j W [ [ ` { { W / `  .] ( ^ E ~ ^ { +.",
"Q Y W ^ / ~ ) _ ' ' ) / E U ' ( | ] { { ` ^ O.-.R B ) E I ] } R M D E G b S I U E P E P b b Y ! Q ) ) T Y W ( R W _ ) ` _ | .._ ",
"Y Q ! / ~ ' ' ( X.` ^ ~ ~ ' X.| } o.X.` ^ ` ....D c c r p j p p y y p 1 4 9 q u r e i t 8 : a i t t 8 s a d i u u p y d s c u 6 ",
"^ ( ' +.' o.$.[ [ {  .+.{ ] ..O.O.O.X.) ` { o.{ S n c h f j k l M S V Z G U L J F L K D D M B D S D Z c b B B G K H C C C z C G ",
") ~ _ T R / _ { ' { { X.| { o.O. .o.#.] '  .} ` S c Q _ ` Y ^ [ ' ( {  .[  .{ _ ` ) [ +.' ^ +.@. .{ ( ] _ ~ ` | ) ) [ ( o.| F E ",
"E A m c M n A Q { | { ..) ....) ` X...o.O.} | o.J N T ! N U ^ I J P ' Q U L G T Q R T ! I ( &.( G U U K A V I ! / ( @. .T ' V C ",
"^ Y B x x P / [ &.#.} } } / B K / _  .( [ ' [ Y S B ^ L F _ ! E Q [ [ ~ ) ) @.X.&.} [ ' [ | Q G Q E I K Y R ` ' ' } { _ / K I v ",
"U ! M C ~ ^ | =._ ( } ) _ R W ~  .{ R R [ X.` ] Z V W A ~ ) T Q _ ( E E _ ( ) / ( ` ] D J Y J T / E ~ ` [ ) #.X.) / ! ~ U J n s ",
"[ R / O.' X.4.R V _ F U b A T T ~ Y C ~ _ ! ' o.d Z ~ Y / W E T Q ! ~ ^ ^ W / / ~ W W ( F U L L E U E E / ) ` / T T R ' ^ _ l a ",
"Z M n N N N K n E L V F N J K T v m S x f b M y s L ~ T ^ .. .` ^ / _ ] Q R R K I ` 3.5.H P G R T _ W R I ! G ! / U Q R Y R V n ",
"8 0 & @ > 7 , 9 q 4 e w p 0 y 0 : 1 7 1 ; > 2 i G R ! U } { ' [ } ' ) ! ~ U K ~ 4.7.| E V Y Q / L ( { J B I ^ Y ` ! I ^ E ^ P A ",
"{ ' W Z K _ @...' | ..X.{ ..[ } { ~ ^ ! E ! ..) T U ) ( ) Y W ) ] ( Q R L T +.:.[ I N E ! / [ ~ )  .E Z P U ~ W ^ ) ) ] { [ F B ",
"{ ) E s H #.>.,.:.2.%.;.,.1.;.../ | #.$.%...[ | Z E [ X.' W ( _ ' / E P P Q ' ~ T U ^ X.W / o.+._ S W ) ( Q R ~ R ( / } ] J J x ",
"X.( | w Z @.] ] ' ^ #.;.1.:.2.=.=.*.*.#.o.X.#.] V U ( T ) W Y ^ } Q C v S [ ) { } | @._ ) +.} K L } } [ [ ] R I E R R ( T Y L b ",
"' ` ] t x ~ I ~ ! _  .o.X.#.@.#.;.#...#.' ! o.%.F T W Y M B U ( Q G S P G W { +.#.<.{ K _ [ Q ^ +.&.[ ` ` W R ( E T L ( E / P m ",
"/ ~ { p h _ ,.*.X.5.-.X./ E ` @.$.#.:.<.2.1.O.o.V J ! F n l H L v A E ~ ' | [ O.1.3.) ( Q T _ O.&.| _ L U E ) R / Y / _ S T V z ",
"~ R E d j S ~ o.-.*.' ~ ^ ( K B Z Y ) ` o.U V h b A a l B S K m C J M F N D F C Z A P ~ U Q ( | Q Y E E ^ ' T ! ~ E T Y E J d v ",
"W K ~ j f v e 6 6 5 5 4 7 5 3 0 i a t p p q q g U E D V c s i y q 9 w r u r 6 6 , : = - O & $ * o % + o % * $ + + $ % * = < x L ",
"W R ^ Q R ^ U I U Q _ ! E Y ' { ' ^ ~ R Y | @.1.&. .] ' X.=.@.X.X.X.-.+.( ^ ^ / ../ Y L J F G J G C A G H K I Y L U P P P ~ ) ^ ",
"/ Q Y ~ ) | _ | / ^ / ~ ( Y K / ] W ^ J J o.9.6.<.-.o.'  .1.2.5.5.2.:.;.O.$.o.( o.O.R ! { { _ { ! I W ! ]  .{ X.#.} ) _ ' #.( _ ",
"! Q R H K K T  .) ) ( E E L S C b x Z n N X.+.O.X.+.o.] ' +.#.$.$.>.&.;.o.&...] _ ) F F { @.$.[ Y T ) ] ] | ] *.$.] X.o._ / K J ",
"U U U E W P G J R ^ ~ ( Y Y m f z Z A Z V } +.%.{ _ R Y T ) } ..] ` ` ..} o. .' ] ` m / ] ] { [ ^ ) ] } X.| o. .^ Q |  .W D S Z ",
"R R I U W T U F S I ~ / P ( H b K Y ^ P M +.' / ) ) ~ ) ' I Z Y I K ( ^ &...! ' _ | B Q Z b I ` .. .o.@.X.o.^ L ^ ( ) _ o.E Z b ",
"_ / ! Y Y W ! I P T J I I G P F S M D V b / / ] ] K E [ $.+._ H L K W K K U P ~ W ^ B H F H T W E / | / I ~ / ' [ ] [ / I P x z ",
"E T ! ' ' ` ~ U ^ { E z g M L M n N F N F U @.*.Q J K n v T R W Q Q W R Q R P G D F s v L H n A J J Y M G U P W ` ! K / E W H l ",
") ! Q H Z J R W P g = i Y | / d c F G a K ) &.o.) ( ^ K P L S / Y N C A F E K D A c i e n l u 9 u l e p s i g a k l m m S D l z ",
"[ E Y U E W D s 5 e V _ Y T J b k P D l T X.@.R K T / =.| R ^ E U G V M C M h M s q t h r 0 8 u g s h z b h g p h n B z f f S ..",
"Z D ~ ] } ~ V H _ _ { ^ ( R n n T { A F I Z > 1 4 , 7 a f B v i & # * , -   + $ @ 5 a D U Q ( X.o.o.O.{ X.-.{ ....O.} O.O.@.@...",
"8 k x F V N p 6 d y 8 e * . X + s p > D T p 7 3 , 3 9 r s r q r f s y q i x k j g k l ~ =.+.>.:.+.*.-.) ..4.%.&.>.X.+.@.O.o.! ] "
};
